<svg class="style-svg replaced-svg svg-replaced-25" id="svg-replaced-25" fill="none"
                    viewBox="0 0 266 25" height="25" width="266" xmlns="http://www.w3.org/2000/svg">
                    <path fill="white"
                        d="M10.5124 22.3134C6.64066 22.3134 4.48424 20.206 3.38152 18.4171C2.40132 16.8733 1.88672 14.9619 1.88672 12.928V0.724609H2.86691V12.928C2.86691 14.7904 3.33251 16.5057 4.19018 17.878C5.61146 20.157 7.74338 21.3087 10.4879 21.3087C13.2325 21.3087 15.3644 20.157 16.8102 17.878C17.6924 16.4812 18.158 14.7659 18.158 12.9035V0.724609H19.1381V12.9035C19.1381 14.9619 18.6235 16.8488 17.6434 18.4171C16.5161 20.206 14.3842 22.3134 10.4879 22.3134H10.5124Z">
                    </path>
                    <path fill="white"
                        d="M10.5126 24.1513C6.98389 24.1513 4.21484 22.926 2.22994 20.5C0.808661 18.7357 0 16.3832 0 13.9082V0.724609H1.0047V13.9082C1.0047 16.1627 1.71534 18.2701 3.0141 19.8629C4.77845 22.0438 7.30245 23.1466 10.5126 23.1466C13.7227 23.1466 16.2467 22.0438 18.0356 19.8384C19.3343 18.2456 20.045 16.1137 20.045 13.8592V0.724609H21.0252V13.8592C21.0252 16.3342 20.241 18.6867 18.7952 20.451C16.8103 22.877 14.0168 24.1268 10.4881 24.1268L10.5126 24.1513Z">
                    </path>
                    <path fill="white" d="M57.1208 0.724609H56.1406V23.6367H57.1208V0.724609Z"></path>
                    <path fill="white" d="M58.9597 0.724609H57.9795V23.6367H58.9597V0.724609Z"></path>
                    <path fill="white"
                        d="M48.9607 23.6612V0.724609H47.956V22.4604L28.9893 3.46916V23.6612H29.9695V5.87063L47.76 23.6612H48.9607Z">
                    </path>
                    <path fill="white"
                        d="M46.1662 0.749114V18.2456L28.3511 0.724609H27.1504V23.6612H28.1306V1.92535L47.1464 20.6226V0.749114H46.1662Z">
                    </path>
                    <path fill="white" d="M78.5381 15.0353L86.9678 23.563L87.6784 22.8278L78.5381 13.6875V15.0353Z">
                    </path>
                    <path fill="white"
                        d="M89.4434 12.1929C89.4434 5.65008 84.1258 0.33252 77.583 0.33252C71.0402 0.33252 65.7227 5.65008 65.7227 12.1929C65.7227 18.7357 71.0402 24.0532 77.583 24.0532C80.1315 24.0532 82.5085 23.2201 84.4444 21.8478L83.7337 21.1372C81.9694 22.3379 79.862 23.073 77.583 23.073C71.5793 23.073 66.7029 18.1966 66.7029 12.1929C66.7029 6.18919 71.6038 1.31271 77.583 1.31271C83.5622 1.31271 88.4632 6.18919 88.4632 12.1929C88.4632 14.6924 87.6055 16.9958 86.1842 18.8337C85.9882 19.1033 85.7676 19.3483 85.5226 19.5934L86.2332 20.304L88.1446 22.2154L88.8553 21.5047L86.8704 19.5443C88.4632 17.5349 89.4434 14.9864 89.4434 12.1929Z">
                    </path>
                    <path fill="white"
                        d="M80.3505 13.075H79.0027L84.1242 18.1965L84.8349 18.9072C85.0554 18.6621 85.276 18.4171 85.472 18.1475C86.7217 16.4812 87.4814 14.4228 87.4814 12.1928C87.4814 6.75277 83.046 2.31738 77.6059 2.31738C72.1659 2.31738 67.7305 6.75277 67.7305 12.1928C67.7305 17.6329 72.1659 22.0683 77.6059 22.0683C79.6888 22.0683 81.6002 21.4312 83.193 20.3285L82.4824 19.6178C81.0856 20.549 79.3948 21.0881 77.6059 21.0881C72.705 21.0881 68.7107 17.0938 68.7107 12.1928C68.7107 7.29187 72.705 3.29758 77.6059 3.29758C82.5069 3.29758 86.5012 7.29187 86.5012 12.1928C86.5012 14.1532 85.8641 15.9666 84.7614 17.4369L80.3505 13.075Z">
                    </path>
                    <path fill="white"
                        d="M108.189 23.2455H109.733C111.816 23.2455 113.458 22.6819 114.658 21.5546C115.859 20.4274 117.06 18.467 118.261 15.649C118.432 15.2814 118.579 15.1099 118.775 15.1099C118.824 15.1099 118.873 15.1099 118.922 15.1099C118.971 15.1099 118.996 15.1099 119.02 15.1099L117.158 24.2257C116.104 23.9071 114.021 23.7356 110.909 23.7356H97.2354V23.5395C97.2354 23.368 97.4069 23.27 97.7745 23.172C98.142 23.0984 98.5586 23.0004 98.9997 22.9269C99.4653 22.8289 99.8574 22.5348 100.225 22.0447C100.593 21.5546 100.764 20.8685 100.764 19.9618V3.96014C100.764 3.22499 100.593 2.66138 100.225 2.2693C99.8574 1.87722 99.4653 1.63218 99.0242 1.55866C98.5831 1.48515 98.191 1.38713 97.8235 1.31361C97.4559 1.21559 97.2844 1.09307 97.2844 0.946039V0.75H108.777V0.946039C108.777 1.11757 108.581 1.2401 108.214 1.31361C107.846 1.41163 107.429 1.48515 106.988 1.55866C106.547 1.63218 106.131 1.87722 105.763 2.29381C105.395 2.71039 105.199 3.274 105.199 3.98464C105.199 5.50395 105.199 8.24849 105.199 12.2183C105.199 16.1881 105.199 18.9081 105.199 20.4519C105.199 21.3586 105.444 22.0692 105.91 22.5348C106.376 23.0249 107.16 23.2455 108.214 23.2455H108.189Z">
                    </path>
                    <path fill="white"
                        d="M145.828 14.0796C145.828 20.7939 142.814 24.1511 136.786 24.1511C130.145 24.1511 126.813 21.284 126.813 15.5744V3.9591C126.813 3.22395 126.641 2.66034 126.273 2.26826C125.93 1.87618 125.514 1.63114 125.097 1.55762C124.681 1.48411 124.264 1.38609 123.921 1.31257C123.578 1.21455 123.382 1.09203 123.382 0.945V0.748961H134.801V0.945C134.801 1.11653 134.654 1.21455 134.385 1.31257C134.09 1.38609 133.772 1.4596 133.404 1.50861C133.037 1.55762 132.669 1.72916 132.326 1.99871C131.983 2.26826 131.738 2.66034 131.615 3.12593C131.346 3.83657 131.199 4.64524 131.199 5.60093V15.8195C131.199 18.319 131.689 20.2058 132.645 21.5046C133.6 22.8033 135.365 23.4405 137.913 23.4405C140.143 23.4405 141.932 22.6808 143.255 21.137C144.579 19.6177 145.216 17.4123 145.216 14.5452V5.06182C145.216 4.08162 144.995 3.29747 144.579 2.73386C144.162 2.17024 143.696 1.80267 143.182 1.68015C142.667 1.55762 142.226 1.4351 141.785 1.31257C141.368 1.19005 141.148 1.06752 141.148 0.89599V0.699951H149.798V0.89599C149.798 1.06752 149.602 1.19005 149.185 1.31257C148.769 1.4351 148.328 1.55762 147.813 1.68015C147.299 1.80267 146.858 2.14574 146.441 2.73386C146.024 3.29747 145.828 4.08162 145.828 5.06182V14.0796Z">
                    </path>
                    <path fill="white"
                        d="M169.941 20.1077L165.726 13.5894L162.639 18.0002C161.365 19.8626 160.727 21.0633 160.727 21.627C160.727 22.019 160.875 22.3131 161.169 22.5581C161.463 22.7787 161.781 22.9257 162.124 22.9747C162.467 23.0237 162.786 23.0973 163.08 23.1953C163.374 23.2933 163.521 23.4158 163.521 23.5628V23.7344H154.944V23.5628C154.944 23.3913 155.042 23.2933 155.238 23.2198C155.434 23.1463 155.728 23.0727 156.121 22.9747C156.513 22.8767 156.954 22.7052 157.444 22.4846C157.934 22.2641 158.498 21.872 159.159 21.3084C159.821 20.7448 160.458 20.0096 161.071 19.103L165.383 13.0257L160.066 4.76761C159.625 4.08147 159.184 3.49335 158.694 3.00326C158.203 2.51316 157.787 2.17009 157.444 1.94955C157.101 1.729 156.758 1.55747 156.464 1.43494C156.17 1.31242 155.949 1.2144 155.802 1.11638C155.655 1.01836 155.581 0.944847 155.581 0.871332V0.675293H166.633V0.871332C166.633 1.04287 166.486 1.16539 166.217 1.23891C165.947 1.33692 165.628 1.41044 165.31 1.48395C164.967 1.55747 164.673 1.67999 164.403 1.90054C164.134 2.09658 163.987 2.39063 163.987 2.75821C163.987 3.07677 164.207 3.61588 164.648 4.37553C165.089 5.13518 165.751 6.16438 166.633 7.48765C167.515 8.78641 168.079 9.64408 168.324 10.0607L171.314 5.64978C172.196 4.32652 172.661 3.39533 172.661 2.83172C172.661 2.43964 172.539 2.14559 172.294 1.92504C172.049 1.7045 171.755 1.58197 171.461 1.53296C171.167 1.48395 170.873 1.41044 170.627 1.31242C170.382 1.2144 170.26 1.06737 170.26 0.895837V0.699798H178.616V0.895837C178.616 1.06737 178.445 1.23891 178.077 1.33692C177.734 1.45945 177.268 1.58197 176.729 1.729C176.19 1.87603 175.479 2.29261 174.597 2.97875C173.715 3.66489 172.882 4.59607 172.049 5.7478L168.667 10.5508L175.308 20.6958C175.773 21.3329 176.264 21.8475 176.803 22.2396C177.342 22.6317 177.783 22.8522 178.15 22.9502C178.494 23.0237 178.812 23.1218 179.057 23.1953C179.302 23.2933 179.425 23.3913 179.425 23.5383V23.7344H167.858V23.5628C167.858 23.4158 168.005 23.3178 168.275 23.1953C168.545 23.0973 168.863 22.9992 169.206 22.9502C169.549 22.8767 169.868 22.7297 170.137 22.5336C170.407 22.3131 170.554 22.0435 170.554 21.7005C170.554 21.2349 170.358 20.6958 169.941 20.0832V20.1077Z">
                    </path>
                    <path fill="white"
                        d="M207.116 14.0796C207.116 20.7939 204.102 24.1511 198.074 24.1511C191.433 24.1511 188.101 21.284 188.101 15.5744V3.9591C188.101 3.22395 187.929 2.66034 187.561 2.26826C187.218 1.87618 186.802 1.63114 186.385 1.55762C185.969 1.48411 185.552 1.38609 185.209 1.31257C184.866 1.21455 184.67 1.09203 184.67 0.945V0.748961H196.089V0.945C196.089 1.11653 195.942 1.21455 195.673 1.31257C195.379 1.38609 195.06 1.4596 194.692 1.50861C194.325 1.55762 193.957 1.72916 193.614 1.99871C193.271 2.26826 193.026 2.66034 192.904 3.12593C192.634 3.83657 192.487 4.64524 192.487 5.60093V15.8195C192.487 18.319 192.977 20.2058 193.933 21.5046C194.888 22.8033 196.653 23.4405 199.201 23.4405C201.431 23.4405 203.22 22.6808 204.543 21.137C205.867 19.6177 206.504 17.4123 206.504 14.5452V5.06182C206.504 4.08162 206.283 3.29747 205.867 2.73386C205.45 2.17024 204.984 1.80267 204.47 1.68015C203.955 1.55762 203.514 1.4351 203.073 1.31257C202.657 1.19005 202.436 1.06752 202.436 0.89599V0.699951H211.086V0.89599C211.086 1.06752 210.89 1.19005 210.474 1.31257C210.057 1.4351 209.616 1.55762 209.101 1.68015C208.587 1.80267 208.146 2.14574 207.729 2.73386C207.312 3.29747 207.116 4.08162 207.116 5.06182V14.0796Z">
                    </path>
                    <path fill="white"
                        d="M225.372 12.8052H224.588V20.1322C224.588 20.9898 224.784 21.6515 225.152 22.1171C225.519 22.5826 225.936 22.8767 226.377 22.9502C226.818 23.0237 227.234 23.1218 227.602 23.1953C227.97 23.2933 228.166 23.4158 228.166 23.5628V23.7344H216.673V23.5628C216.673 23.3913 216.844 23.2443 217.212 23.1463C217.58 23.0482 217.972 22.9747 218.437 22.8767C218.878 22.7787 219.295 22.4601 219.662 21.921C220.03 21.3819 220.202 20.6468 220.202 19.6666V3.95895C220.202 3.2238 220.03 2.66019 219.662 2.2436C219.295 1.82702 218.903 1.58197 218.462 1.53296C218.021 1.48395 217.629 1.38593 217.261 1.31242C216.893 1.23891 216.722 1.09188 216.722 0.920342V0.675293H226.695C229.783 0.675293 232.184 1.16539 233.924 2.14559C235.64 3.12578 236.522 4.64508 236.522 6.70349C236.522 8.49235 235.689 9.96264 234.047 11.1389C232.38 12.3151 230.053 12.8787 227.038 12.8787C226.94 12.8787 226.769 12.8787 226.524 12.8787C226.279 12.8787 226.107 12.8787 226.034 12.8787C226.989 14.0304 228.803 14.5696 231.449 14.5205L235.885 20.7938C236.522 21.676 237.208 22.3131 237.943 22.6562C238.678 22.9992 239.242 23.2198 239.634 23.2688C240.026 23.3178 240.222 23.4648 240.222 23.6609V23.8079H233.189L225.397 12.8297L225.372 12.8052ZM224.588 1.23891V12.2661H225.985C227.823 12.2661 229.244 11.7515 230.298 10.7468C231.327 9.71759 231.866 8.41883 231.866 6.77701C231.866 5.13518 231.327 3.7384 230.249 2.75821C229.17 1.75351 227.774 1.26341 226.058 1.26341H224.612L224.588 1.23891Z">
                    </path>
                    <path fill="white"
                        d="M256.272 12.6337H256.37L259.801 5.9194C260.462 4.66965 260.805 3.73846 260.805 3.15035C260.805 2.56223 260.56 2.12114 260.07 1.87609C259.58 1.60654 259.09 1.43501 258.6 1.33699C258.11 1.23897 257.865 1.11644 257.865 0.969414V0.724365H266.001V0.969414C266.001 1.14095 265.829 1.26347 265.51 1.36149C265.192 1.45951 264.8 1.55753 264.334 1.68006C263.869 1.77807 263.305 2.12114 262.692 2.68475C262.08 3.24837 261.492 4.00802 261.002 4.96371C259.752 7.31618 258.281 10.1097 256.615 13.3689V20.1812C256.615 21.0389 256.811 21.7005 257.179 22.1661C257.546 22.6317 257.963 22.9258 258.404 22.9993C258.845 23.0728 259.262 23.1708 259.629 23.2443C259.997 23.3424 260.193 23.4649 260.193 23.6119V23.7835H248.749V23.6119C248.749 23.4404 248.921 23.3179 249.288 23.2443C249.656 23.1463 250.048 23.0728 250.464 22.9748C250.881 22.8768 251.273 22.6072 251.641 22.1171C252.008 21.627 252.18 20.9654 252.18 20.1322V14.006L246.446 3.81198C246.078 3.17485 245.686 2.66025 245.22 2.29268C244.779 1.9251 244.387 1.68006 244.069 1.58204C243.75 1.48402 243.481 1.4105 243.26 1.31248C243.039 1.21446 242.941 1.09194 242.941 0.944909V0.74887H253.601V0.993919C253.601 1.14095 253.454 1.23897 253.16 1.33699C252.866 1.43501 252.572 1.50852 252.229 1.55753C251.886 1.60654 251.592 1.75357 251.298 1.97411C251.004 2.19466 250.856 2.46421 250.856 2.80728C250.856 3.10134 250.955 3.3954 251.126 3.68946L256.199 12.6827L256.272 12.6337Z">
                    </path>
                </svg>